<svg xmlns="http://www.w3.org/2000/svg" fill="none" viewBox="0 0 399 205"><g fill="#39598e"><path d="M84.2.943A1 1 0 0185.2 0h58.129a1 1 0 01.998 1.057l-11.508 202.5a1 1 0 01-.998.943H73.69a1 1 0 01-.998-1.057zM177.34.943a1 1 0 01.999-.943h58.129a1 1 0 01.998 1.057l-11.508 202.5a1 1 0 01-.998.943h-58.13a1 1 0 01-.998-1.057zM270.48.943a1 1 0 01.999-.943h58.129a1 1 0 01.998 1.057l-11.508 202.5a1 1 0 01-.999.943H259.97a1 1 0 01-.998-1.057z" opacity=".4"/><path d="M83.974.538A1 1 0 0184.86 0h57.877a1 1 0 01.887 1.462L61.15 159.815a1 1 0 01-.887.538H2.385a1 1 0 01-.887-1.462zM177.513.535a1 1 0 01.885-.535h57.874a1 1 0 01.886 1.465L131.305 203.247a1 1 0 01-.886.535H72.545a1 1 0 01-.885-1.464zM271.052.535a1 1 0 01.886-.535h57.874a1 1 0 01.885 1.465L224.844 203.247a1 1 0 01-.885.535h-57.875a1 1 0 01-.885-1.464zM337.869 47.315a1 1 0 01.891-.545h57.886a1 1 0 01.891 1.454l-79.155 155.013a1 1 0 01-.891.545h-57.887a1 1 0 01-.89-1.454z"/></g></svg>