<svg xmlns="http://www.w3.org/2000/svg" id="Layer_1" x="0" y="0" version="1.1" viewBox="0 0 2038.5 1551" xml:space="preserve"><style>.st0{fill:#ffd480}.st1{fill:#ffe9c0}.st2{fill:#f9c161}.st3{fill:#eaecef}.st4{fill:#525266}.st5{fill:#41415b}.st6{fill:#5b5d66}.st7{fill:#878787}.st8{opacity:.29;fill:#c6c6c6;enable-background:new}.st9{fill:#6a6b72}.st10{fill:#b2b2b2}.st11{fill:#e8af4e}.st12{fill:#fff}.st13{fill:#4d4770}.st14{fill:#7b7f2f}.st15{fill:#fac161}</style><path d="M752.1 196.8c14.3-15 28.3-24.6 31.6-21.6 2.4 2.2-1.8 10.8-9.9 21.1-7.9 11.6 41.5 43.5 86.6 53.9l-30.6 66.3c-14.3-37.6-60.9-107.8-77-98-9.9 8.6-18.2 13.2-20.5 11-3.3-3.1 5.6-17.7 19.8-32.7z" class="st0"/><path d="M732.2 229.5c2.4 2.2 10.6-2.4 20.5-11 16.1-9.9 62.8 60.4 77 98l16.2-35-95.5-82.8c-13.2 14.2-21.3 27.8-18.2 30.8z" class="st1"/><path d="M1422.9 196.8c-14.3-15-28.4-24.6-31.6-21.6-2.4 2.2 1.8 10.8 9.9 21.1 7.9 11.6-41.5 43.5-86.6 53.9l30.6 66.3c14.3-37.6 60.9-107.8 77-98 9.9 8.6 18.2 13.2 20.5 11 3.3-3.1-5.6-17.7-19.8-32.7z" class="st0"/><path d="M1424.6 198.6l-95.5 82.8 16.2 35c14.3-37.6 60.9-107.8 77-98 9.9 8.6 18.2 13.2 20.5 11 3.1-2.9-5-16.5-18.2-30.8z" class="st2"/><path d="M1134.4 1175.6c229.4-1.2 646.5-14.6 806.3-73.9 106-29.3 222.2-143.5-216.5-206.4L1132.8 856l1.6 319.6z" class="st3"/><path d="M1383.6 894.4c-163.1-66.8-427.6-66.8-590.7 0s-163.1 175 0 241.8c163.1 66.8 427.6 66.8 590.7 0 163-66.8 163.1-175.1 0-241.8z" class="st4"/><path d="M792.9 949.3c163.1-66.8 427.6-66.8 590.7 0 64.4 26.4 103.4 59.2 116.9 93.4 20.7-52.4-18.2-108-116.9-148.4-163.1-66.8-427.6-66.8-590.7 0-98.7 40.4-137.6 96-116.9 148.4 13.5-34.2 52.4-67 116.9-93.4z" class="st5"/><path d="M1349.5 342.2c-11.7-135.3-125-239.2-260.8-239.2h-11.2c-130.1 0-238.6 99.5-249.8 229.2l-68.3 788.6c142.8 84 499.1 97.2 657.3 0-21.8-252.3-45.3-525.3-67.2-778.6z" class="st0"/><path d="M851.7 1018.9c4.4-17.8 9.1-34.6 20.1-49.6 9.1-12.5 22.5-19.7 34.6-28.7 48.8-36.5-2.2-84.9-10.5-128.3-8.5-44-17.5-84.1 3.5-125.7 11-21.8 21.3-44.5 22.9-69.2 1.8-27-2.3-53.6-6.1-80.2-7.1-49-8.5-97.9-2.6-147.2 6.1-51.1 19.2-99.3 36.1-147.9 13.4-38.5 34.8-81.1 38.4-122.5-89.7 34.4-151.9 116.9-160.2 212.6l-66.8 770.9c16.2-3.7 53.9-30.5 59.9-34.7 19.3-13.4 25.1-26.9 30.7-49.5z" class="st1"/><path d="M1258.4 264.6c16.6 48.4 28.5 97.6 32.8 148.7 4.2 50.1.5 97.9-6.2 147.5-3.7 27.3-7.9 56.4-1.2 83.6 5 20.6 14 38.9 23.5 57.7 10.5 21 12.4 43.2 9.2 66.3-3.3 23.3-6 48.6-13.5 70.9-7.2 21.4-25.5 40.3-27.4 63.2-2.2 26.4 9.7 39.3 30 53.2 14 9.6 27.1 20.4 34.4 36.2 7.7 16.8 9.9 34.8 15.7 52.2 6.6 20 20.1 28.5 36.6 40.2 2.5 1.8 12.1 8.6 22.7 15.2-21.9-251-43.7-505.3-65.5-757.2-7.5-86.4-57.4-163.6-133.1-205.9 3.1 19.3 10.4 37.8 17 56.1 8.5 24 16.9 48 25 72.1z" class="st2"/><circle cx="921.3" cy="1013.3" r="40.2" class="st1"/><path d="M951.2 1062.7c-10.2 0-18.5 8.3-18.5 18.5s8.3 18.5 18.5 18.5 18.5-8.3 18.5-18.5-8.3-18.5-18.5-18.5z" class="st1"/><path d="M831.2 1255.5c-187.1-66.3-490.5-66.3-677.6 0s-187.1 173.7 0 240 490.5 66.3 677.6 0c187-66.4 187.1-173.8 0-240z" class="st3"/><path d="M827.2 1356.5c-12.5-34.8-51.5-68.4-116.9-95.1-161.9-66.3-424.3-66.3-586.2 0-65.5 26.8-104.4 60.3-116.9 95.1H2.7v35.6c6.2 39.8 47.1 78.8 121.4 109.2 161.9 66.3 424.3 66.3 586.2 0 74.2-30.4 115.2-69.1 121.4-108.9v-35.9h-4.5z" class="st6"/><path d="M711.6 1236.8c-161.9-66.3-424.3-66.3-586.2 0-161.8 66.3-161.9 173.7 0 240s424.3 66.3 586.2 0 161.8-173.8 0-240z" class="st7"/><path d="M751.4 1435.9l46.1-26.6 1.1.6c2.8-3.4 5.3-6.9 7.7-10.6l-9.4 5.5-45.4-26.2 46.1-26.6 21.7 12.5c.1-1.3.2-2.7.2-4L801 1350l16.4-9.5c-.3-1.4-.8-2.8-1.2-4.2l-19.4 11.2-45.4-26.2 40.9-23.6c-1-1.1-2-2.1-3-3.1l-42.1 24.3-45.4-26.2 46.1-26.6 26.3 15.2c-16.4-12.9-37.3-25-62.5-36.1l32 18.5-46.1 26.6-45.4-26.2 43.9-25.3c-1.7-.7-3.4-1.3-5.1-2l-43.1 24.9-45.4-26.2 29.7-17.2-5.9-1.5-28.1 16.2-45.4-26.2 6-3.5c-2.2-.3-4.4-.7-6.7-1l-3.5 2.1-5.7-3.3-9.3-1.2 11.4 6.6-46.1 26.6-45.4-26.2 21.3-12.4c-2.6-.2-5.2-.3-7.8-.4l-17.8 10.3-19.8-11.4-7.3-.1 23.5 13.6-46.1 26.6-45.4-26.2 22.8-13.2c-3.1.1-6.2.3-9.3.4l-17.8 10.3-14-8.1c-2.1.2-4.1.4-6.2.6l16.7 9.6-46.1 26.6-45.4-26.2c-4.2.7-8.4 1.5-12.6 2.4l-41.3 23.8-16.9-9.7c-1.6.5-3.2.9-4.8 1.4l18.1 10.4-46.1 26.6L123 1245c-1.3.6-2.8 1.2-4.1 1.8l29 16.7-46.1 26.6-30.1-17.3c-1.1.8-2.2 1.5-3.2 2.3l29.6 17.1-46.1 26.6-18.7-10.8c-.7 1-1.5 1.9-2.2 2.9l17.3 10-31 17.9c-.5 1.9-1 3.8-1.3 5.6l36.5-21.1 45.4 26.2-46 26.6-37-21.4c-.1 1.4-.1 2.7-.1 4.1l33.5 19.4-24.4 14.1c.7 1.2 1.3 2.5 2 3.7l26.6-15.4 45.4 26.2-41.2 23.8c1.2 1 2.3 1.9 3.5 2.9l41.9-24.2 45.4 26.2-43.7 25.2c1.5.8 3.1 1.5 4.6 2.2l43.3-25 45.4 26.2-35.4 20.5 5.4 1.8 34.3-19.7 45.4 26.2-17.6 10.2c2.1.4 4.2.9 6.2 1.3l15.6-9 29.4 17c3.1.5 6.3.9 9.5 1.3l-35.3-20.4 46.1-26.6 45.4 26.2-39.6 22.8c2.4.3 4.7.5 7.1.8l36.7-21.2 45.4 26.2-.4.3c2.8.1 5.5.1 8.3.1l46.1-26.6 41.4 23.9c2.1-.2 4.2-.3 6.3-.5l-44.1-25.5 46.1-26.6 45.4 26.2-44.3 25.6c3.3-.3 6.7-.6 10-.9l38.5-22.2 24 13.9c1.8-.3 3.7-.6 5.5-1l-25.9-14.9 46.1-26.6 45.4 26.2-1.5.8c5.8-1.6 11.6-3.3 17.3-5.1l38.1-21.9 8.6 5c1.4-.6 2.8-1.2 4.1-1.8l-9.1-5.3 46.1-26.6 11 6.4c1.1-.7 2.3-1.5 3.4-2.2l-10.8-6.3zm-3.6-112.6l45.4 26.2-46.1 26.6-45.4-26.2 46.1-26.6zm-149.6 24.1l-45.4-26.2 46.1-26.6 45.4 26.2-46.1 26.6zm50.3-24.1l45.4 26.2-46.1 26.6-45.4-26.2 46.1-26.6zm-53.8 26.2l-46.1 26.6-45.5-26.2 46.1-26.6 45.5 26.2zm-46.1-30.7l-45.4-26.2 46.1-26.6 45.4 26.2-46.1 26.6zm-3.6 2.1l-46.1 26.6-45.4-26.2 46.1-26.6 45.4 26.2zM400.3 1352l45.4 26.2-46.1 26.6-45.4-26.2 46.1-26.6zm-50.3 24.1l-45.5-26.2 46.1-26.6 45.4 26.2-46 26.6zm53.8-26.1l46.1-26.6 45.4 26.2-46.1 26.6-45.4-26.2zm45.4-31.2l-45.4-26.2 46.1-26.6 45.4 26.2-46.1 26.6zm-3.5 2.1l-46.1 26.6-45.4-26.2 46.1-26.6 45.4 26.2zm-95.8-2.1l-45.4-26.2 46.1-26.6 45.4 26.2-46.1 26.6zm-3.5 2.1l-46.1 26.6-45.4-26.2 46.1-26.6 45.4 26.2zm-49.7 28.7l-46.1 26.6-45.4-26.2 46.1-26.6 45.4 26.2zm-46.1-30.7l-45.4-26.2 46.1-26.6 45.4 26.2-46.1 26.6zm-3.5 2l-46.1 26.6-45.4-26.2 46.1-26.6 45.4 26.2zm-49.7 28.7l-46.1 26.6-45.5-26.3 46.1-26.6 45.5 26.3zm4.2 2.4l45.4 26.2-46.1 26.6-45.4-26.2 46.1-26.6zm49.7 28.7l45.4 26.2-46.1 26.6-45.4-26.2 46.1-26.6zm3.6-2.1L301 1352l45.4 26.2-46.1 26.6-45.4-26.2zm95.7 2.1l45.4 26.2-46.1 26.6-45.4-26.2 46.1-26.6zm49.6 28.6l45.4 26.2-46.1 26.6-45.4-26.2 46.1-26.6zm3.6-2l46.1-26.6 45.4 26.2-46.1 26.6-45.4-26.2zm49.7-28.7l46.1-26.6 45.4 26.2-46.1 26.6-45.4-26.2zm95.7 2.1l45.5 26.2-46.1 26.6-45.4-26.2 46-26.6zm3.6-2.1l46.1-26.6 45.4 26.2-46.1 26.6-45.4-26.2zm95.7 2.1l45.4 26.2-46.1 26.6-45.4-26.2 46.1-26.6zm3.6-2.1l46.1-26.6 45.4 26.2-46.1 26.6-45.4-26.2zm46-84l45.4 26.2-46.1 26.6-45.4-26.2 46.1-26.6zm-49.6-28.6l45.4 26.2-46.1 26.6-45.4-26.2 46.1-26.6zm-49.7-28.7l45.4 26.2-46.1 26.6-45.4-26.2 46.1-26.6zm-49.6-28.7l45.5 26.2-46.1 26.6-45.4-26.2 46-26.6zm-49.7 28.7l45.4 26.2-46.1 26.6-45.4-26.2 46.1-26.6zm-49.6-28.7l45.4 26.2-46.1 26.6-45.4-26.2 46.1-26.6zm-49.6 28.7l45.4 26.2-46.1 26.6-45.4-26.2 46.1-26.6zm-49.7-28.7l45.4 26.2-46.1 26.6-45.4-26.2 46.1-26.6zm-49.6 28.7l45.4 26.2-46.1 26.6-45.4-26.2 46.1-26.6zm-49.7-28.7l45.4 26.2-46.1 26.6-45.4-26.2 46.1-26.6zm-49.6 28.7l45.4 26.2-46.1 26.6-45.4-26.2 46.1-26.6zM152 1266l45.4 26.2-46.1 26.6-45.4-26.2L152 1266zm-95.7 55.2l46.1-26.6 45.4 26.2-46.1 26.6-45.4-26.2zm45.4 83.6l-45.4-26.2 46.1-26.6 45.4 26.2-46.1 26.6zm49.7 28.7l-45.4-26.2 46.1-26.6 45.4 26.2-46.1 26.6zm49.6 28.6l-45.5-26.2 46.1-26.6 45.5 26.2-46.1 26.6zm49.6 28.7l-45.4-26.2 46.1-26.6 45.4 26.2-46.1 26.6zm49.7-28.7l-45.4-26.2 46.1-26.6 45.4 26.2-46.1 26.6zm49.7 28.7l-45.4-26.2 46.1-26.6 45.4 26.2-46.1 26.6zm49.6 28.7l-45.4-26.2 46.1-26.6 45.4 26.2-46.1 26.6zm49.7-28.7l-45.4-26.2L450 1438l45.4 26.2-46.1 26.6zm49.6-28.7l-45.4-26.2 46.1-26.6 45.4 26.2-46.1 26.6zm49.7 28.7l-45.4-26.2 46.1-26.6 45.5 26.2-46.2 26.6zm49.6-28.7l-45.4-26.2 46.1-26.6 45.4 26.2-46.1 26.6zm49.7 28.7l-45.4-26.2 46.1-26.6 45.4 26.2-46.1 26.6zm49.6-28.7l-45.4-26.2 46.1-26.6 45.4 26.2-46.1 26.6zm49.7-28.6l-45.4-26.2 46.1-26.6 45.4 26.2-46.1 26.6z" class="st8"/><path d="M130.6 1268.2c158.3-66.3 414.9-66.3 573.1 0 71.4 29.9 110.4 68.1 117.4 107.2 8.5-47.6-30.5-96.4-117.4-132.7-158.3-66.3-414.9-66.3-573.1 0-86.9 36.4-126 85.2-117.4 132.7 6.9-39 46-77.3 117.4-107.2z" class="st9"/><path d="M417.8 1526.5c-109.4 0-212.5-16.9-290.1-47.6-80.6-31.8-125-75.3-125-122.3s44.4-90.5 125-122.4c77.7-30.7 180.7-47.6 290.1-47.6s212.5 16.9 290.1 47.6c80.6 31.8 125 75.3 125 122.3s-44.4 90.5-125 122.4c-77.6 30.6-180.6 47.6-290.1 47.6zm0-319.8c-106.8 0-207 16.4-282.3 46.1-71.2 28.1-112.2 66-112.2 103.8s40.9 75.7 112.1 103.8c75.2 29.7 175.4 46.1 282.3 46.1 106.8 0 207-16.4 282.2-46.1 71.3-28.1 112.1-66 112.1-103.8s-40.9-75.7-112.1-103.8c-75-29.8-175.3-46.2-282.1-46.1z" class="st10"/><path d="M437 1360.9c-10.6-4.4-27.7-4.4-38.3 0s-10.6 11.4 0 15.7 27.7 4.4 38.3 0 10.6-11.3 0-15.7z" class="st6"/><path d="M678.5 988.4c-27.6 8.3-56.5 14.5-84.1 13.3 0 0-43.2-.7-12.3-40.8 18.6-19.6 56-27.7 87.3-33.6 24.9-3.7 69-13.9 65.7 69.4l-.2 72.7c-13.8-14.8-53.5-48.8-56.4-81z" class="st1"/><path d="M677 1044.6c-24.9 14.5-51.5 27.2-78.7 32.4 0 0-42.2 9.4-21.4-36.9 13.6-23.4 48.1-40 77.1-52.9 0 0 72.8-27.5 79.9 52.3l2.3 67.9c-16.9-11.2-49-32.2-59.2-62.8z" class="st2"/><path d="M1499.2 988.1c27.6 8.3 56.5 14.5 84.1 13.3 0 0 43.2-.7 12.3-40.8-18.6-19.6-56-27.7-87.2-33.6-24.9-3.7-69-13.9-65.7 69.4l.2 72.7c13.8-14.8 53.4-48.8 56.3-81z" class="st11"/><path d="M1500.8 1044.3c24.9 14.5 51.5 27.2 78.7 32.4 0 0 42.2 9.4 21.4-36.9-13.6-23.4-48.1-40-77.1-52.9 0 0-72.8-27.5-80 52.3l-2.3 67.3c16.9-11.1 49-31.5 59.3-62.2z" class="st2"/><path d="M1095.5 326.9c-68.7 0-124.3 76.8-124.3 171.6S1026.8 670 1095.5 670s124.3-76.8 124.3-171.6-55.7-171.5-124.3-171.5z" class="st12"/><path d="M1095.5 516.7c-6.9 0-13.8 1.4-20.2 4 1.7 2.8 2.7 6 2.7 9.3.1 9.7-7.7 17.6-17.4 17.7-4.1 0-8-1.3-11.2-3.9-14.2 25.5-5.1 57.7 20.4 71.9 25.5 14.2 57.7 5.1 71.9-20.4 14.2-25.5 5.1-57.7-20.4-71.9-7.9-4.4-16.8-6.7-25.8-6.7z" class="st13"/><path d="M1020.3 848.9c-5.5 0-10-4.5-10-10 0-2.3.8-4.5 2.2-6.3 20.1-25.3 50.7-40 83-39.9 32.3-.1 62.9 14.6 83 39.9 3.6 4.2 3.1 10.6-1.2 14.2-4.2 3.6-10.6 3.1-14.2-1.2-.1-.1-.2-.3-.3-.4-29.8-37.2-84.1-43.2-121.3-13.4-4.9 4-9.4 8.4-13.4 13.4-1.9 2.3-4.8 3.7-7.8 3.7z" class="st14"/><path d="M1095.5 321.9c-71.4 0-129.4 79.9-129.4 178.5s258.8 98.6 258.8 0-58-178.5-129.4-178.5z" class="st15"/></svg>