<svg xmlns="http://www.w3.org/2000/svg" fill="none" viewBox="0 0 1680 221"><linearGradient id="a" x1="840" x2="840" y1="0" y2="220.432" gradientUnits="userSpaceOnUse"><stop offset="0" stop-color="#fff"/><stop offset="1" stop-color="#e2e2e2"/></linearGradient><linearGradient id="b" x1="0" x2="1680" y1="101" y2="110" gradientUnits="userSpaceOnUse"><stop offset="0" stop-color="#fff"/><stop offset=".151" stop-color="#fff" stop-opacity="0"/><stop offset=".849" stop-color="#fff" stop-opacity="0"/><stop offset="1" stop-color="#fff"/></linearGradient><g fill-rule="evenodd" clip-rule="evenodd" opacity=".5"><path fill="url(#a)" d="M1680 0H0v163.97c96.973-13.702 174.233 2.371 263.947 21.035 57.685 12.001 120.519 25.073 197.053 31.99 140.182 12.668 286.281-12.076 422.598-35.163 86.009-14.567 168.122-28.474 242.402-31.909 192-8.877 391-3.945 554 54.249z"/><path fill="url(#b)" d="M1680 0H0v163.97c96.973-13.702 174.233 2.371 263.947 21.035 57.685 12.001 120.519 25.073 197.053 31.99 140.182 12.668 286.281-12.076 422.598-35.163 86.009-14.567 168.122-28.474 242.402-31.909 192-8.877 391-3.945 554 54.249z"/></g></svg>