<svg xmlns="http://www.w3.org/2000/svg" width="68" height="35" fill="none" viewBox="0 0 68 35"><g fill="#fff"><path d="M14.892 1.262a1 1 0 01.998-.944h8.137a1 1 0 01.999 1.057L23.18 33.86a1 1 0 01-.999.943h-8.137a1 1 0 01-.998-1.056zM30.598 1.262a1 1 0 01.999-.944h8.137a1 1 0 01.998 1.057L38.886 33.86a1 1 0 01-.998.943H29.75a1 1 0 01-.999-1.056zM46.305 1.262a1 1 0 01.998-.944h8.137a1 1 0 01.998 1.057L54.592 33.86a1 1 0 01-.998.943h-8.137a1 1 0 01-.999-1.056z" opacity=".4"/><path d="M14.665.856a1 1 0 01.887-.538h7.886a1 1 0 01.886 1.462L11.282 26.82a1 1 0 01-.886.539H2.51a1 1 0 01-.887-1.462zM30.439.854a1 1 0 01.885-.536h7.882a1 1 0 01.885 1.465L23.114 34.147a1 1 0 01-.886.535h-7.882a1 1 0 01-.885-1.464zM46.212.854a1 1 0 01.885-.536h7.882a1 1 0 01.886 1.465L38.887 34.147a1 1 0 01-.886.535H30.12a1 1 0 01-.886-1.464zM57.481 8.75a1 1 0 01.891-.545h7.894a1 1 0 01.891 1.455L54.658 34.137a1 1 0 01-.89.545h-7.895a1 1 0 01-.89-1.455z"/></g></svg>