<svg xmlns="http://www.w3.org/2000/svg" viewBox="0 0 464 464"><path fill="#b3b3b3" d="M346.416 436.832l-44.968-89.936H162.552l-44.968 89.936h228.832z"/><path fill="#29abe2" d="M48 0h368c22.091 0 40 17.909 40 40v272c0 22.091-17.909 40-40 40H48c-22.091 0-40-17.909-40-40V40C8 17.909 25.909 0 48 0z"/><g fill="#0071bc"><path d="M208 64h216v16H208V64zM208 96h136v16H208V96zM208 128h136v16H208v-16zM272 32h152v16H272V32zM240 32h16v16h-16V32z"/></g><path fill="#e6e6e6" d="M416 352H48c-22.091 0-40-17.909-40-40v-24h448v24c0 22.091-17.909 40-40 40z"/><path fill="#b3b3b3" d="M224 312h16v16h-16v-16z"/><path fill="#e6e6e6" d="M72 432h320c8.837 0 16 7.163 16 16s-7.163 16-16 16H72c-8.837 0-16-7.163-16-16s7.163-16 16-16z"/><g fill="#da4836"><path d="M114.344 77.656l-16-16a8 8 0 010-11.312l16-16 11.312 11.312L115.312 56l10.344 10.344-11.312 11.312zM173.656 77.656l-11.312-11.312L172.688 56l-10.344-10.344 11.312-11.312 16 16a8 8 0 010 11.312l-16 16zM128.404 77.464l16.016-47.998 15.17 5.062-16.016 47.998-15.17-5.062z"/></g><path fill="#fbb03b" d="M172.584 288l4.184-12.872L208 262.464V232.8l-31.2-12.656-7.568-23.288 17.824-28.592-17.44-24-32.736 8.144-19.816-14.4-2.36-33.552-28.216-9.176-21.648 25.776H40.336L18.68 95.28 8 98.752V288h164.584z"/><path fill="#29abe2" d="M106.576 288c22.234-29.871 16.043-72.11-13.828-94.344C67.229 174.661 31.904 176.088 8 197.08V288h98.576z"/><path fill="#fbb03b" d="M264 208h16v40h-16v-40z"/><path fill="#f15a24" d="M296 192h16v56h-16v-56z"/><path fill="#fbb03b" d="M328 200h16v48h-16v-48z"/><path fill="#f15a24" d="M360 160h16v88h-16v-88z"/><path fill="#fbb03b" d="M392 176h16v72h-16v-72z"/><path fill="#0071bc" d="M248 240h176v16H248v-16z"/></svg>